<svg width="1440" height="720" viewBox="0 0 1440 720" fill="none" xmlns="http://www.w3.org/2000/svg">
<g clip-path="url(#clip0_49_54)">
<rect width="1440" height="720" fill="#141414"/>
<g opacity="0.18" filter="url(#filter0_f_49_54)">
<ellipse cx="1360" cy="660" rx="410" ry="211" fill="#141414"/>
</g>
<g opacity="0.18" filter="url(#filter1_f_49_54)">
<ellipse cx="410" cy="211" rx="410" ry="211" transform="matrix(1 0 0 -1 -455 384)" fill="#141414"/>
</g>
<g opacity="0.1" filter="url(#filter2_f_49_54)">
<ellipse cx="295" cy="760" rx="505" ry="211" fill="#141414"/>
</g>
<g opacity="0.1" filter="url(#filter3_f_49_54)">
<ellipse cx="1360" cy="5" rx="505" ry="211" fill="#141414"/>
</g>
<rect x="0.25" y="0.25" width="79.5" height="79.5" stroke="white" stroke-opacity="0.02" stroke-width="0.5"/>
<rect x="0.25" y="80.25" width="79.5" height="79.5" stroke="white" stroke-opacity="0.02" stroke-width="0.5"/>
<rect x="0.25" y="160.25" width="79.5" height="79.5" stroke="white" stroke-opacity="0.02" stroke-width="0.5"/>
<rect x="0.25" y="240.25" width="79.5" height="79.5" stroke="white" stroke-opacity="0.02" stroke-width="0.5"/>
<rect x="0.25" y="320.25" width="79.5" height="79.5" stroke="white" stroke-opacity="0.02" stroke-width="0.5"/>
<rect x="0.25" y="400.25" width="79.5" height="79.5" stroke="white" stroke-opacity="0.02" stroke-width="0.5"/>
<rect x="0.25" y="480.25" width="79.5" height="79.5" stroke="white" stroke-opacity="0.02" stroke-width="0.5"/>
<rect x="0.25" y="560.25" width="79.5" height="79.5" stroke="white" stroke-opacity="0.02" stroke-width="0.5"/>
<rect x="0.25" y="640.25" width="79.5" height="79.5" stroke="white" stroke-opacity="0.02" stroke-width="0.5"/>
<rect x="80.25" y="0.25" width="79.5" height="79.5" stroke="white" stroke-opacity="0.02" stroke-width="0.5"/>
<rect x="80.25" y="80.25" width="79.5" height="79.5" stroke="white" stroke-opacity="0.02" stroke-width="0.5"/>
<rect x="80.25" y="160.25" width="79.5" height="79.5" stroke="white" stroke-opacity="0.02" stroke-width="0.5"/>
<rect x="80.25" y="240.25" width="79.5" height="79.5" stroke="white" stroke-opacity="0.02" stroke-width="0.5"/>
<rect x="80.25" y="320.25" width="79.5" height="79.5" stroke="white" stroke-opacity="0.02" stroke-width="0.5"/>
<rect x="80.25" y="400.25" width="79.5" height="79.5" stroke="white" stroke-opacity="0.02" stroke-width="0.5"/>
<rect x="80.25" y="480.25" width="79.5" height="79.5" stroke="white" stroke-opacity="0.02" stroke-width="0.5"/>
<rect x="80.25" y="560.25" width="79.5" height="79.5" stroke="white" stroke-opacity="0.02" stroke-width="0.5"/>
<rect x="80.25" y="640.25" width="79.5" height="79.5" stroke="white" stroke-opacity="0.02" stroke-width="0.5"/>
<rect x="160.25" y="0.25" width="79.5" height="79.5" stroke="white" stroke-opacity="0.02" stroke-width="0.5"/>
<rect x="160.25" y="80.25" width="79.5" height="79.5" stroke="white" stroke-opacity="0.02" stroke-width="0.5"/>
<rect x="160.25" y="160.25" width="79.5" height="79.5" stroke="white" stroke-opacity="0.02" stroke-width="0.5"/>
<rect x="160.25" y="240.25" width="79.5" height="79.5" stroke="white" stroke-opacity="0.02" stroke-width="0.5"/>
<rect x="160.25" y="320.25" width="79.5" height="79.5" stroke="white" stroke-opacity="0.02" stroke-width="0.5"/>
<rect x="160.25" y="400.25" width="79.5" height="79.5" stroke="white" stroke-opacity="0.02" stroke-width="0.5"/>
<rect x="160.25" y="480.25" width="79.5" height="79.5" stroke="white" stroke-opacity="0.02" stroke-width="0.5"/>
<rect x="160.25" y="560.25" width="79.5" height="79.5" stroke="white" stroke-opacity="0.02" stroke-width="0.5"/>
<rect x="160.25" y="640.25" width="79.5" height="79.5" stroke="white" stroke-opacity="0.02" stroke-width="0.5"/>
<rect x="240.25" y="0.25" width="79.5" height="79.5" stroke="white" stroke-opacity="0.02" stroke-width="0.5"/>
<rect x="240.25" y="80.25" width="79.5" height="79.5" stroke="white" stroke-opacity="0.02" stroke-width="0.5"/>
<rect x="240.25" y="160.25" width="79.5" height="79.5" stroke="white" stroke-opacity="0.02" stroke-width="0.5"/>
<rect x="240.25" y="240.25" width="79.5" height="79.5" stroke="white" stroke-opacity="0.02" stroke-width="0.5"/>
<rect x="240.25" y="320.25" width="79.5" height="79.5" stroke="white" stroke-opacity="0.02" stroke-width="0.5"/>
<rect x="240.25" y="400.25" width="79.5" height="79.5" stroke="white" stroke-opacity="0.02" stroke-width="0.5"/>
<rect x="240.25" y="480.25" width="79.5" height="79.5" stroke="white" stroke-opacity="0.02" stroke-width="0.5"/>
<rect x="240.25" y="560.25" width="79.5" height="79.5" stroke="white" stroke-opacity="0.02" stroke-width="0.5"/>
<rect x="240.25" y="640.25" width="79.5" height="79.5" stroke="white" stroke-opacity="0.02" stroke-width="0.5"/>
<rect x="320.25" y="0.25" width="79.5" height="79.5" stroke="white" stroke-opacity="0.02" stroke-width="0.5"/>
<rect x="320.25" y="80.25" width="79.5" height="79.5" stroke="white" stroke-opacity="0.02" stroke-width="0.5"/>
<rect x="320.25" y="160.25" width="79.5" height="79.5" stroke="white" stroke-opacity="0.02" stroke-width="0.5"/>
<rect x="320.25" y="240.25" width="79.5" height="79.5" stroke="white" stroke-opacity="0.02" stroke-width="0.5"/>
<rect x="320.25" y="320.25" width="79.5" height="79.5" stroke="white" stroke-opacity="0.02" stroke-width="0.5"/>
<rect x="320.25" y="400.25" width="79.5" height="79.5" stroke="white" stroke-opacity="0.02" stroke-width="0.5"/>
<rect x="320.25" y="480.25" width="79.5" height="79.5" stroke="white" stroke-opacity="0.02" stroke-width="0.5"/>
<rect x="320.25" y="560.25" width="79.5" height="79.5" stroke="white" stroke-opacity="0.02" stroke-width="0.5"/>
<rect x="320.25" y="640.25" width="79.5" height="79.5" stroke="white" stroke-opacity="0.02" stroke-width="0.5"/>
<rect x="400.25" y="0.25" width="79.5" height="79.5" stroke="white" stroke-opacity="0.02" stroke-width="0.5"/>
<rect x="400.25" y="80.25" width="79.5" height="79.5" stroke="white" stroke-opacity="0.02" stroke-width="0.5"/>
<rect x="400.25" y="160.25" width="79.5" height="79.5" stroke="white" stroke-opacity="0.02" stroke-width="0.5"/>
<rect x="400.25" y="240.25" width="79.5" height="79.5" stroke="white" stroke-opacity="0.02" stroke-width="0.5"/>
<rect x="400.25" y="320.25" width="79.5" height="79.5" stroke="white" stroke-opacity="0.02" stroke-width="0.5"/>
<rect x="400.25" y="400.25" width="79.5" height="79.5" stroke="white" stroke-opacity="0.02" stroke-width="0.5"/>
<rect x="400.25" y="480.25" width="79.5" height="79.5" stroke="white" stroke-opacity="0.02" stroke-width="0.5"/>
<rect x="400.25" y="560.25" width="79.5" height="79.5" stroke="white" stroke-opacity="0.02" stroke-width="0.5"/>
<rect x="400.25" y="640.25" width="79.5" height="79.5" stroke="white" stroke-opacity="0.02" stroke-width="0.5"/>
<rect x="480.25" y="0.25" width="79.5" height="79.5" stroke="white" stroke-opacity="0.02" stroke-width="0.5"/>
<rect x="480.25" y="80.25" width="79.5" height="79.5" stroke="white" stroke-opacity="0.02" stroke-width="0.5"/>
<rect x="480.25" y="160.25" width="79.5" height="79.5" stroke="white" stroke-opacity="0.02" stroke-width="0.5"/>
<rect x="480.25" y="240.25" width="79.5" height="79.5" stroke="white" stroke-opacity="0.02" stroke-width="0.5"/>
<rect x="480.25" y="320.25" width="79.5" height="79.5" stroke="white" stroke-opacity="0.02" stroke-width="0.5"/>
<rect x="480.25" y="400.25" width="79.5" height="79.5" stroke="white" stroke-opacity="0.02" stroke-width="0.5"/>
<rect x="480.25" y="480.25" width="79.5" height="79.5" stroke="white" stroke-opacity="0.02" stroke-width="0.5"/>
<rect x="480.25" y="560.25" width="79.5" height="79.5" stroke="white" stroke-opacity="0.02" stroke-width="0.5"/>
<rect x="480.25" y="640.25" width="79.5" height="79.5" stroke="white" stroke-opacity="0.02" stroke-width="0.5"/>
<rect x="560.25" y="0.25" width="79.5" height="79.5" stroke="white" stroke-opacity="0.02" stroke-width="0.5"/>
<rect x="560.25" y="80.25" width="79.5" height="79.5" stroke="white" stroke-opacity="0.02" stroke-width="0.5"/>
<rect x="560.25" y="160.25" width="79.5" height="79.5" stroke="white" stroke-opacity="0.02" stroke-width="0.5"/>
<rect x="560.25" y="240.25" width="79.5" height="79.5" stroke="white" stroke-opacity="0.02" stroke-width="0.5"/>
<rect x="560.25" y="320.25" width="79.5" height="79.5" stroke="white" stroke-opacity="0.02" stroke-width="0.5"/>
<rect x="560.25" y="400.25" width="79.5" height="79.5" stroke="white" stroke-opacity="0.02" stroke-width="0.5"/>
<rect x="560.25" y="480.25" width="79.5" height="79.5" stroke="white" stroke-opacity="0.02" stroke-width="0.5"/>
<rect x="560.25" y="560.25" width="79.5" height="79.5" stroke="white" stroke-opacity="0.02" stroke-width="0.5"/>
<rect x="560.25" y="640.25" width="79.5" height="79.5" stroke="white" stroke-opacity="0.02" stroke-width="0.5"/>
<rect x="640.25" y="0.25" width="79.5" height="79.5" stroke="white" stroke-opacity="0.02" stroke-width="0.5"/>
<rect x="640.25" y="80.25" width="79.5" height="79.5" stroke="white" stroke-opacity="0.02" stroke-width="0.5"/>
<rect x="640.25" y="160.25" width="79.5" height="79.5" stroke="white" stroke-opacity="0.02" stroke-width="0.5"/>
<rect x="640.25" y="240.25" width="79.5" height="79.5" stroke="white" stroke-opacity="0.02" stroke-width="0.5"/>
<rect x="640.25" y="320.25" width="79.5" height="79.5" stroke="white" stroke-opacity="0.02" stroke-width="0.5"/>
<rect x="640.25" y="400.25" width="79.5" height="79.5" stroke="white" stroke-opacity="0.02" stroke-width="0.5"/>
<rect x="640.25" y="480.25" width="79.5" height="79.5" stroke="white" stroke-opacity="0.02" stroke-width="0.5"/>
<rect x="640.25" y="560.25" width="79.5" height="79.5" stroke="white" stroke-opacity="0.02" stroke-width="0.5"/>
<rect x="640.25" y="640.25" width="79.5" height="79.5" stroke="white" stroke-opacity="0.02" stroke-width="0.5"/>
<rect x="720.25" y="0.25" width="79.5" height="79.5" stroke="white" stroke-opacity="0.02" stroke-width="0.5"/>
<rect x="720.25" y="80.25" width="79.5" height="79.5" stroke="white" stroke-opacity="0.02" stroke-width="0.5"/>
<rect x="720.25" y="160.25" width="79.5" height="79.5" stroke="white" stroke-opacity="0.02" stroke-width="0.5"/>
<rect x="720.25" y="240.25" width="79.5" height="79.5" stroke="white" stroke-opacity="0.02" stroke-width="0.5"/>
<rect x="720.25" y="320.25" width="79.5" height="79.5" stroke="white" stroke-opacity="0.02" stroke-width="0.5"/>
<rect x="720.25" y="400.25" width="79.5" height="79.5" stroke="white" stroke-opacity="0.02" stroke-width="0.5"/>
<rect x="720.25" y="480.25" width="79.5" height="79.5" stroke="white" stroke-opacity="0.02" stroke-width="0.5"/>
<rect x="720.25" y="560.25" width="79.5" height="79.5" stroke="white" stroke-opacity="0.02" stroke-width="0.5"/>
<rect x="720.25" y="640.25" width="79.5" height="79.5" stroke="white" stroke-opacity="0.02" stroke-width="0.5"/>
<rect x="800.25" y="0.25" width="79.5" height="79.5" stroke="white" stroke-opacity="0.02" stroke-width="0.5"/>
<rect x="800.25" y="80.25" width="79.5" height="79.5" stroke="white" stroke-opacity="0.02" stroke-width="0.5"/>
<rect x="800.25" y="160.25" width="79.5" height="79.5" stroke="white" stroke-opacity="0.02" stroke-width="0.5"/>
<rect x="800.25" y="240.25" width="79.5" height="79.5" stroke="white" stroke-opacity="0.02" stroke-width="0.5"/>
<rect x="800.25" y="320.25" width="79.5" height="79.5" stroke="white" stroke-opacity="0.02" stroke-width="0.5"/>
<rect x="800.25" y="400.25" width="79.5" height="79.5" stroke="white" stroke-opacity="0.02" stroke-width="0.5"/>
<rect x="800.25" y="480.25" width="79.5" height="79.5" stroke="white" stroke-opacity="0.02" stroke-width="0.5"/>
<rect x="800.25" y="560.25" width="79.5" height="79.5" stroke="white" stroke-opacity="0.02" stroke-width="0.5"/>
<rect x="800.25" y="640.25" width="79.5" height="79.5" stroke="white" stroke-opacity="0.02" stroke-width="0.5"/>
<rect x="880.25" y="0.25" width="79.5" height="79.5" stroke="white" stroke-opacity="0.02" stroke-width="0.5"/>
<rect x="880.25" y="80.25" width="79.5" height="79.5" stroke="white" stroke-opacity="0.02" stroke-width="0.5"/>
<rect x="880.25" y="160.25" width="79.5" height="79.5" stroke="white" stroke-opacity="0.02" stroke-width="0.5"/>
<rect x="880.25" y="240.25" width="79.5" height="79.5" stroke="white" stroke-opacity="0.02" stroke-width="0.5"/>
<rect x="880.25" y="320.25" width="79.5" height="79.5" stroke="white" stroke-opacity="0.02" stroke-width="0.5"/>
<rect x="880.25" y="400.25" width="79.5" height="79.5" stroke="white" stroke-opacity="0.02" stroke-width="0.5"/>
<rect x="880.25" y="480.25" width="79.5" height="79.5" stroke="white" stroke-opacity="0.02" stroke-width="0.5"/>
<rect x="880.25" y="560.25" width="79.5" height="79.5" stroke="white" stroke-opacity="0.02" stroke-width="0.5"/>
<rect x="880.25" y="640.25" width="79.5" height="79.5" stroke="white" stroke-opacity="0.02" stroke-width="0.5"/>
<rect x="960.25" y="0.25" width="79.5" height="79.5" stroke="white" stroke-opacity="0.02" stroke-width="0.5"/>
<rect x="960.25" y="80.25" width="79.5" height="79.5" stroke="white" stroke-opacity="0.02" stroke-width="0.5"/>
<rect x="960.25" y="160.25" width="79.5" height="79.5" stroke="white" stroke-opacity="0.02" stroke-width="0.5"/>
<rect x="960.25" y="240.25" width="79.5" height="79.5" stroke="white" stroke-opacity="0.02" stroke-width="0.5"/>
<rect x="960.25" y="320.25" width="79.5" height="79.5" stroke="white" stroke-opacity="0.02" stroke-width="0.5"/>
<rect x="960.25" y="400.25" width="79.5" height="79.5" stroke="white" stroke-opacity="0.02" stroke-width="0.5"/>
<rect x="960.25" y="480.25" width="79.5" height="79.5" stroke="white" stroke-opacity="0.02" stroke-width="0.5"/>
<rect x="960.25" y="560.25" width="79.5" height="79.5" stroke="white" stroke-opacity="0.02" stroke-width="0.5"/>
<rect x="960.25" y="640.25" width="79.5" height="79.5" stroke="white" stroke-opacity="0.02" stroke-width="0.5"/>
<rect x="1040.25" y="0.25" width="79.5" height="79.5" stroke="white" stroke-opacity="0.02" stroke-width="0.5"/>
<rect x="1040.25" y="80.25" width="79.5" height="79.5" stroke="white" stroke-opacity="0.02" stroke-width="0.5"/>
<rect x="1040.25" y="160.25" width="79.5" height="79.5" stroke="white" stroke-opacity="0.02" stroke-width="0.5"/>
<rect x="1040.25" y="240.25" width="79.5" height="79.5" stroke="white" stroke-opacity="0.02" stroke-width="0.5"/>
<rect x="1040.25" y="320.25" width="79.5" height="79.5" stroke="white" stroke-opacity="0.02" stroke-width="0.5"/>
<rect x="1040.25" y="400.25" width="79.5" height="79.5" stroke="white" stroke-opacity="0.02" stroke-width="0.5"/>
<rect x="1040.25" y="480.25" width="79.5" height="79.5" stroke="white" stroke-opacity="0.02" stroke-width="0.5"/>
<rect x="1040.25" y="560.25" width="79.5" height="79.5" stroke="white" stroke-opacity="0.02" stroke-width="0.5"/>
<rect x="1040.25" y="640.25" width="79.5" height="79.5" stroke="white" stroke-opacity="0.02" stroke-width="0.5"/>
<rect x="1120.25" y="0.25" width="79.5" height="79.5" stroke="white" stroke-opacity="0.02" stroke-width="0.5"/>
<rect x="1120.25" y="80.25" width="79.5" height="79.5" stroke="white" stroke-opacity="0.02" stroke-width="0.5"/>
<rect x="1120.25" y="160.25" width="79.5" height="79.5" stroke="white" stroke-opacity="0.02" stroke-width="0.5"/>
<rect x="1120.25" y="240.25" width="79.5" height="79.5" stroke="white" stroke-opacity="0.02" stroke-width="0.5"/>
<rect x="1120.25" y="320.25" width="79.5" height="79.5" stroke="white" stroke-opacity="0.02" stroke-width="0.5"/>
<rect x="1120.25" y="400.25" width="79.5" height="79.5" stroke="white" stroke-opacity="0.02" stroke-width="0.5"/>
<rect x="1120.25" y="480.25" width="79.5" height="79.5" stroke="white" stroke-opacity="0.02" stroke-width="0.5"/>
<rect x="1120.25" y="560.25" width="79.5" height="79.5" stroke="white" stroke-opacity="0.02" stroke-width="0.5"/>
<rect x="1120.25" y="640.25" width="79.5" height="79.5" stroke="white" stroke-opacity="0.02" stroke-width="0.5"/>
<rect x="1200.25" y="0.25" width="79.5" height="79.5" stroke="white" stroke-opacity="0.02" stroke-width="0.5"/>
<rect x="1200.25" y="80.25" width="79.5" height="79.5" stroke="white" stroke-opacity="0.02" stroke-width="0.5"/>
<rect x="1200.25" y="160.25" width="79.5" height="79.5" stroke="white" stroke-opacity="0.02" stroke-width="0.5"/>
<rect x="1200.25" y="240.25" width="79.5" height="79.5" stroke="white" stroke-opacity="0.02" stroke-width="0.5"/>
<rect x="1200.25" y="320.25" width="79.5" height="79.5" stroke="white" stroke-opacity="0.02" stroke-width="0.5"/>
<rect x="1200.25" y="400.25" width="79.5" height="79.5" stroke="white" stroke-opacity="0.02" stroke-width="0.5"/>
<rect x="1200.25" y="480.25" width="79.5" height="79.5" stroke="white" stroke-opacity="0.02" stroke-width="0.5"/>
<rect x="1200.25" y="560.25" width="79.5" height="79.5" stroke="white" stroke-opacity="0.02" stroke-width="0.5"/>
<rect x="1200.25" y="640.25" width="79.5" height="79.5" stroke="white" stroke-opacity="0.02" stroke-width="0.5"/>
<rect x="1280.25" y="0.25" width="79.5" height="79.5" stroke="white" stroke-opacity="0.02" stroke-width="0.5"/>
<rect x="1280.25" y="80.25" width="79.5" height="79.5" stroke="white" stroke-opacity="0.02" stroke-width="0.5"/>
<rect x="1280.25" y="160.25" width="79.5" height="79.5" stroke="white" stroke-opacity="0.02" stroke-width="0.5"/>
<rect x="1280.25" y="240.25" width="79.5" height="79.5" stroke="white" stroke-opacity="0.02" stroke-width="0.5"/>
<rect x="1280.25" y="320.25" width="79.5" height="79.5" stroke="white" stroke-opacity="0.02" stroke-width="0.5"/>
<rect x="1280.25" y="400.25" width="79.5" height="79.5" stroke="white" stroke-opacity="0.02" stroke-width="0.5"/>
<rect x="1280.25" y="480.25" width="79.5" height="79.5" stroke="white" stroke-opacity="0.02" stroke-width="0.5"/>
<rect x="1280.25" y="560.25" width="79.5" height="79.5" stroke="white" stroke-opacity="0.02" stroke-width="0.5"/>
<rect x="1280.25" y="640.25" width="79.5" height="79.5" stroke="white" stroke-opacity="0.02" stroke-width="0.5"/>
<rect x="1360.25" y="0.25" width="79.5" height="79.5" stroke="white" stroke-opacity="0.02" stroke-width="0.5"/>
<rect x="1360.25" y="80.25" width="79.5" height="79.5" stroke="white" stroke-opacity="0.02" stroke-width="0.5"/>
<rect x="1360.25" y="160.25" width="79.5" height="79.5" stroke="white" stroke-opacity="0.02" stroke-width="0.5"/>
<rect x="1360.25" y="240.25" width="79.5" height="79.5" stroke="white" stroke-opacity="0.02" stroke-width="0.5"/>
<rect x="1360.25" y="320.25" width="79.5" height="79.5" stroke="white" stroke-opacity="0.02" stroke-width="0.5"/>
<rect x="1360.25" y="400.25" width="79.5" height="79.5" stroke="white" stroke-opacity="0.02" stroke-width="0.5"/>
<rect x="1360.25" y="480.25" width="79.5" height="79.5" stroke="white" stroke-opacity="0.02" stroke-width="0.5"/>
<rect x="1360.25" y="560.25" width="79.5" height="79.5" stroke="white" stroke-opacity="0.02" stroke-width="0.5"/>
<rect x="1360.25" y="640.25" width="79.5" height="79.5" stroke="white" stroke-opacity="0.02" stroke-width="0.5"/>
</g>
<defs>
<filter id="filter0_f_49_54" x="527.2" y="26.2" width="1665.6" height="1267.6" filterUnits="userSpaceOnUse" color-interpolation-filters="sRGB">
<feFlood flood-opacity="0" result="BackgroundImageFix"/>
<feBlend mode="normal" in="SourceGraphic" in2="BackgroundImageFix" result="shape"/>
<feGaussianBlur stdDeviation="211.4" result="effect1_foregroundBlur_49_54"/>
</filter>
<filter id="filter1_f_49_54" x="-877.8" y="-460.8" width="1665.6" height="1267.6" filterUnits="userSpaceOnUse" color-interpolation-filters="sRGB">
<feFlood flood-opacity="0" result="BackgroundImageFix"/>
<feBlend mode="normal" in="SourceGraphic" in2="BackgroundImageFix" result="shape"/>
<feGaussianBlur stdDeviation="211.4" result="effect1_foregroundBlur_49_54"/>
</filter>
<filter id="filter2_f_49_54" x="-632.8" y="126.2" width="1855.6" height="1267.6" filterUnits="userSpaceOnUse" color-interpolation-filters="sRGB">
<feFlood flood-opacity="0" result="BackgroundImageFix"/>
<feBlend mode="normal" in="SourceGraphic" in2="BackgroundImageFix" result="shape"/>
<feGaussianBlur stdDeviation="211.4" result="effect1_foregroundBlur_49_54"/>
</filter>
<filter id="filter3_f_49_54" x="432.2" y="-628.8" width="1855.6" height="1267.6" filterUnits="userSpaceOnUse" color-interpolation-filters="sRGB">
<feFlood flood-opacity="0" result="BackgroundImageFix"/>
<feBlend mode="normal" in="SourceGraphic" in2="BackgroundImageFix" result="shape"/>
<feGaussianBlur stdDeviation="211.4" result="effect1_foregroundBlur_49_54"/>
</filter>
<clipPath id="clip0_49_54">
<rect width="1440" height="720" fill="white"/>
</clipPath>
</defs>
</svg>
